<svg width="172" height="36" viewBox="0 0 172 36" fill="none" xmlns="http://www.w3.org/2000/svg">
<path d="M19.8208 28.9002C19.8532 25.5959 19.0154 22.9089 17.9498 22.8985C16.8842 22.8881 15.9941 25.5583 15.9618 28.8625C15.9295 32.1668 16.7672 34.8539 17.8328 34.8643C18.8985 34.8747 19.7886 32.2045 19.8208 28.9002Z" fill="white"/>
<path d="M13.6417 28.15C15.4554 25.3878 16.2036 22.6744 15.3128 22.0895C14.4219 21.5046 12.2295 23.2696 10.4158 26.0318C8.60204 28.794 7.85389 31.5073 8.74467 32.0923C9.63553 32.6772 11.8279 30.9122 13.6417 28.15Z" fill="white"/>
<path d="M8.84087 24.1868C11.8601 22.8438 13.9565 20.9658 13.5234 19.992C13.0903 19.0183 10.2917 19.3177 7.27242 20.6607C4.2532 22.0036 2.15676 23.8817 2.58987 24.8554C3.02298 25.8291 5.82165 25.5298 8.84087 24.1868Z" fill="white"/>
<path d="M13.1607 17.2617C13.3228 16.2084 10.8066 14.9471 7.54072 14.4444C4.27471 13.9416 1.4957 14.388 1.33359 15.4413C1.17147 16.4946 3.68764 17.7559 6.95362 18.2586C10.2196 18.7613 12.9986 18.3149 13.1607 17.2617Z" fill="white"/>
<path d="M14.3337 14.7524C15.0394 13.954 13.6043 11.5327 11.1283 9.34438C8.6523 7.1561 6.07298 6.02947 5.36725 6.828C4.66152 7.62653 6.09663 10.0478 8.57266 12.2361C11.0487 14.4244 13.628 15.551 14.3337 14.7524Z" fill="white"/>
<path d="M16.6695 13.2862C17.695 12.996 17.7968 10.1832 16.8971 7.00361C15.9974 3.82402 14.4367 1.48169 13.4113 1.77186C12.3859 2.06202 12.284 4.8748 13.1837 8.05442C14.0834 11.2339 15.6441 13.5763 16.6695 13.2862Z" fill="white"/>
<path d="M23.0093 8.1531C23.9716 4.99187 23.9252 2.17762 22.9057 1.86729C21.8862 1.55695 20.2797 3.86805 19.3174 7.02928C18.3552 10.1905 18.4015 13.0047 19.4211 13.3151C20.4406 13.6254 22.0471 11.3143 23.0093 8.1531Z" fill="white"/>
<path d="M27.5408 12.4248C30.0592 10.2853 31.5414 7.89255 30.8513 7.08041C30.1614 6.26825 27.5605 7.34427 25.0422 9.48368C22.5239 11.6232 21.0418 14.0159 21.7317 14.8281C22.4217 15.6403 25.0226 14.5643 27.5408 12.4248Z" fill="white"/>
<path d="M29.0395 18.4695C32.3148 18.0313 34.8553 16.8199 34.714 15.7636C34.5727 14.7073 31.803 14.2063 28.5277 14.6444C25.2525 15.0826 22.7119 16.294 22.8533 17.3504C22.9946 18.4066 25.7642 18.9077 29.0395 18.4695Z" fill="white"/>
<path d="M33.265 25.1575C33.7172 24.1926 31.6582 22.2736 28.666 20.8713C25.6739 19.469 22.8817 19.1146 22.4295 20.0795C21.9772 21.0445 24.0362 22.9635 27.0284 24.3658C30.0205 25.768 32.8127 26.1225 33.265 25.1575Z" fill="white"/>
<path d="M26.9718 32.2774C27.874 31.7102 27.1795 28.9825 25.4206 26.1851C23.6617 23.3877 21.5044 21.5798 20.6023 22.1471C19.7001 22.7143 20.3946 25.4419 22.1535 28.2393C23.9124 31.0368 26.0697 32.8447 26.9718 32.2774Z" fill="white"/>
<path d="M49.592 9.152V26H45.488V9.152H49.592ZM60.7261 12.464C62.2941 12.464 63.5421 12.976 64.4701 14C65.4141 15.008 65.8861 16.4 65.8861 18.176V26H61.8061V18.728C61.8061 17.832 61.5741 17.136 61.1101 16.64C60.6461 16.144 60.0221 15.896 59.2381 15.896C58.4541 15.896 57.8301 16.144 57.3661 16.64C56.9021 17.136 56.6701 17.832 56.6701 18.728V26H52.5661V12.608H56.6701V14.384C57.0861 13.792 57.6461 13.328 58.3501 12.992C59.0541 12.64 59.8461 12.464 60.7261 12.464ZM75.458 16.016H73.25V26H69.146V16.016H67.658V12.608H69.146V12.224C69.146 10.576 69.618 9.328 70.562 8.48C71.506 7.616 72.89 7.184 74.714 7.184C75.018 7.184 75.242 7.192 75.386 7.208V10.688C74.602 10.64 74.05 10.752 73.73 11.024C73.41 11.296 73.25 11.784 73.25 12.488V12.608H75.458V16.016ZM79.4504 11.216C78.7304 11.216 78.1384 11.008 77.6744 10.592C77.2264 10.16 77.0024 9.632 77.0024 9.008C77.0024 8.368 77.2264 7.84 77.6744 7.424C78.1384 6.992 78.7304 6.776 79.4504 6.776C80.1544 6.776 80.7304 6.992 81.1784 7.424C81.6424 7.84 81.8744 8.368 81.8744 9.008C81.8744 9.632 81.6424 10.16 81.1784 10.592C80.7304 11.008 80.1544 11.216 79.4504 11.216ZM81.4904 12.608V26H77.3864V12.608H81.4904ZM92.6246 12.464C94.1926 12.464 95.4406 12.976 96.3686 14C97.3126 15.008 97.7846 16.4 97.7846 18.176V26H93.7046V18.728C93.7046 17.832 93.4726 17.136 93.0086 16.64C92.5446 16.144 91.9206 15.896 91.1366 15.896C90.3526 15.896 89.7286 16.144 89.2646 16.64C88.8006 17.136 88.5686 17.832 88.5686 18.728V26H84.4646V12.608H88.5686V14.384C88.9846 13.792 89.5446 13.328 90.2486 12.992C90.9526 12.64 91.7446 12.464 92.6246 12.464ZM102.7 11.216C101.98 11.216 101.388 11.008 100.924 10.592C100.476 10.16 100.252 9.632 100.252 9.008C100.252 8.368 100.476 7.84 100.924 7.424C101.388 6.992 101.98 6.776 102.7 6.776C103.404 6.776 103.98 6.992 104.428 7.424C104.892 7.84 105.124 8.368 105.124 9.008C105.124 9.632 104.892 10.16 104.428 10.592C103.98 11.008 103.404 11.216 102.7 11.216ZM104.74 12.608V26H100.636V12.608H104.74ZM113.811 26.168C112.579 26.168 111.475 25.968 110.499 25.568C109.523 25.168 108.739 24.576 108.147 23.792C107.571 23.008 107.267 22.064 107.235 20.96H111.603C111.667 21.584 111.883 22.064 112.251 22.4C112.619 22.72 113.099 22.88 113.691 22.88C114.299 22.88 114.779 22.744 115.131 22.472C115.483 22.184 115.659 21.792 115.659 21.296C115.659 20.88 115.515 20.536 115.227 20.264C114.955 19.992 114.611 19.768 114.195 19.592C113.795 19.416 113.219 19.216 112.467 18.992C111.379 18.656 110.491 18.32 109.803 17.984C109.115 17.648 108.523 17.152 108.027 16.496C107.531 15.84 107.283 14.984 107.283 13.928C107.283 12.36 107.851 11.136 108.987 10.256C110.123 9.36 111.603 8.912 113.427 8.912C115.283 8.912 116.779 9.36 117.915 10.256C119.051 11.136 119.659 12.368 119.739 13.952H115.299C115.267 13.408 115.067 12.984 114.699 12.68C114.331 12.36 113.859 12.2 113.283 12.2C112.787 12.2 112.387 12.336 112.083 12.608C111.779 12.864 111.627 13.24 111.627 13.736C111.627 14.28 111.883 14.704 112.395 15.008C112.907 15.312 113.707 15.64 114.795 15.992C115.883 16.36 116.763 16.712 117.435 17.048C118.123 17.384 118.715 17.872 119.211 18.512C119.707 19.152 119.955 19.976 119.955 20.984C119.955 21.944 119.707 22.816 119.211 23.6C118.731 24.384 118.027 25.008 117.099 25.472C116.171 25.936 115.075 26.168 113.811 26.168ZM129.944 22.52V26H127.856C126.368 26 125.208 25.64 124.376 24.92C123.544 24.184 123.128 22.992 123.128 21.344V16.016H121.496V12.608H123.128V9.344H127.232V12.608H129.92V16.016H127.232V21.392C127.232 21.792 127.328 22.08 127.52 22.256C127.712 22.432 128.032 22.52 128.48 22.52H129.944ZM138.326 26.192C137.014 26.192 135.83 25.912 134.774 25.352C133.734 24.792 132.91 23.992 132.302 22.952C131.71 21.912 131.414 20.696 131.414 19.304C131.414 17.928 131.718 16.72 132.326 15.68C132.934 14.624 133.766 13.816 134.822 13.256C135.878 12.696 137.062 12.416 138.374 12.416C139.686 12.416 140.87 12.696 141.926 13.256C142.982 13.816 143.814 14.624 144.422 15.68C145.03 16.72 145.334 17.928 145.334 19.304C145.334 20.68 145.022 21.896 144.398 22.952C143.79 23.992 142.95 24.792 141.878 25.352C140.822 25.912 139.638 26.192 138.326 26.192ZM138.326 22.64C139.11 22.64 139.774 22.352 140.318 21.776C140.878 21.2 141.158 20.376 141.158 19.304C141.158 18.232 140.886 17.408 140.342 16.832C139.814 16.256 139.158 15.968 138.374 15.968C137.574 15.968 136.91 16.256 136.382 16.832C135.854 17.392 135.59 18.216 135.59 19.304C135.59 20.376 135.846 21.2 136.358 21.776C136.886 22.352 137.542 22.64 138.326 22.64ZM151.615 14.84C152.095 14.104 152.695 13.528 153.415 13.112C154.135 12.68 154.935 12.464 155.815 12.464V16.808H154.687C153.663 16.808 152.895 17.032 152.383 17.48C151.871 17.912 151.615 18.68 151.615 19.784V26H147.511V12.608H151.615V14.84ZM170.401 19.088C170.401 19.472 170.377 19.872 170.329 20.288H161.041C161.105 21.12 161.369 21.76 161.833 22.208C162.313 22.64 162.897 22.856 163.585 22.856C164.609 22.856 165.321 22.424 165.721 21.56H170.089C169.865 22.44 169.457 23.232 168.865 23.936C168.289 24.64 167.561 25.192 166.681 25.592C165.801 25.992 164.817 26.192 163.729 26.192C162.417 26.192 161.249 25.912 160.225 25.352C159.201 24.792 158.401 23.992 157.825 22.952C157.249 21.912 156.961 20.696 156.961 19.304C156.961 17.912 157.241 16.696 157.801 15.656C158.377 14.616 159.177 13.816 160.201 13.256C161.225 12.696 162.401 12.416 163.729 12.416C165.025 12.416 166.177 12.688 167.185 13.232C168.193 13.776 168.977 14.552 169.537 15.56C170.113 16.568 170.401 17.744 170.401 19.088ZM166.201 18.008C166.201 17.304 165.961 16.744 165.481 16.328C165.001 15.912 164.401 15.704 163.681 15.704C162.993 15.704 162.409 15.904 161.929 16.304C161.465 16.704 161.177 17.272 161.065 18.008H166.201Z" fill="white"/>
</svg>
